<?xml version="1.0" encoding="iso-8859-1"?>
<!-- Generator: Adobe Illustrator 19.0.0, SVG Export Plug-In . SVG Version: 6.00 Build 0)  -->
<svg version="1.1" id="Layer_1" xmlns="http://www.w3.org/2000/svg" xmlns:xlink="http://www.w3.org/1999/xlink" x="0px" y="0px"
	 viewBox="0 0 512 512" style="enable-background:new 0 0 512 512;" xml:space="preserve">
<path style="fill:#AA8B65;" d="M314.64,249.652l0.396,44.604c0.047,5.837-1.71,11.562-5.06,16.486l-51.487,80.454
	c-5.695-9.586-8.674-20.555-8.59-31.729l0.748-109.586h-70.008l0.31,112.771c0.032,10.841,2.943,21.479,8.434,30.826L259.006,512
	h76.278l-56.769-89.255l68.548-111.661c2.906-4.625,4.446-9.888,4.464-15.252l0.164-46.179L314.64,249.652L314.64,249.652z"/>
<g>
	<path style="fill:#564531;" d="M213.992,330.27c-4.328,0-7.837-3.509-7.837-7.837v-28.946c0-4.328,3.509-7.837,7.837-7.837
		c4.328,0,7.837,3.509,7.837,7.837v28.946C221.829,326.762,218.32,330.27,213.992,330.27z"/>
	<path style="fill:#564531;" d="M287.193,512l-25.405-42.898c-2.206-3.724-0.975-8.532,2.749-10.736
		c3.725-2.205,8.532-0.974,10.736,2.749l29.976,50.616L287.193,512z"/>
	<path style="fill:#564531;" d="M230.905,409.67c-1.772,0-3.555-0.598-5.021-1.823c-17.96-15.008-18.167-39.663-18.167-40.706
		c0-4.328,3.509-7.837,7.837-7.837c4.319,0,7.822,3.493,7.837,7.809c0.003,0.29,0.323,18.495,12.543,28.708
		c3.322,2.775,3.764,7.718,0.988,11.038C235.372,408.713,233.146,409.67,230.905,409.67z M223.39,367.14h0.01H223.39z"/>
	<rect x="180.662" y="260.106" style="fill:#564531;" width="69.78" height="19.067"/>
	<polygon style="fill:#564531;" points="351.604,273.593 314.852,273.593 314.733,260.101 351.69,260.101 	"/>
</g>
<g>
	<path style="fill:#B7025C;" d="M431.807,260.101c27.644,0,50.055-22.41,50.055-50.055c0-27.644-22.41-50.055-50.055-50.055
		c-6.065,0-11.876,1.079-17.254,3.055c-10.185-17.952-28.651-30.586-50.216-32.682c0-0.106,0.004-0.209,0.004-0.315
		C364.341,58.226,306.115,0,234.29,0c-63.021,0-115.568,44.829-127.503,104.336c-24.232,14.727-40.419,41.374-40.419,71.803
		c0,0.071,0.005,0.141,0.005,0.212c-21.198,2.121-37.75,20.012-37.75,41.769c0,23.185,18.796,41.981,41.981,41.981H431.807z"/>
	<path style="fill:#B7025C;" d="M72.315,335.788c0,0-13.483-13.902-10.738-26.99c2.744-13.087,20.676-20.403,20.676-20.403
		s13.483,13.902,10.738,26.99C90.246,328.473,72.315,335.788,72.315,335.788z"/>
	<path style="fill:#B7025C;" d="M122.474,401.833c0,0-18.23-6.538-21.534-19.495c-3.305-12.957,9.568-27.428,9.568-27.428
		s18.23,6.538,21.534,19.495C135.346,387.362,122.474,401.833,122.474,401.833z"/>
	<path style="fill:#B7025C;" d="M429.636,346.13c0,0-13.483-13.902-10.738-26.99c2.744-13.087,20.676-20.403,20.676-20.403
		s13.483,13.902,10.738,26.99C447.568,338.814,429.636,346.13,429.636,346.13z"/>
	<path style="fill:#B7025C;" d="M395.205,405.239c0,0-18.23-6.538-21.534-19.495c-3.305-12.957,9.568-27.428,9.568-27.428
		s18.23,6.538,21.534,19.495C408.077,390.769,395.205,405.239,395.205,405.239z"/>
</g>
<g>
	<path style="fill:#720015;" d="M433.322,159.992c-6.065,0-11.875,1.079-17.254,3.055c-10.185-17.952-28.651-30.586-50.216-32.682
		c0-0.104,0.004-0.209,0.004-0.315C365.855,58.226,307.63,0,235.805,0c-6.666,0-13.215,0.507-19.611,1.474
		C278.702,10.941,326.609,64.9,326.609,130.05c0,0.106-0.004,0.209-0.004,0.315c21.565,2.096,40.031,14.729,50.216,32.682
		c5.379-1.976,11.191-3.055,17.254-3.055c27.644,0,50.055,22.41,50.055,50.055c0,27.644-22.41,50.055-50.055,50.055h39.246
		c27.644,0,50.055-22.41,50.055-50.055C483.377,182.403,460.967,159.992,433.322,159.992z"/>
	<path style="fill:#720015;" d="M316.245,147.497c-1.941,0-3.849,0.143-5.723,0.4c-4.651-30.413-30.986-53.784-62.678-53.784
		c-34.963,0-63.409,28.445-63.409,63.409c0,4.328,3.509,7.837,7.837,7.837c4.328,0,7.837-3.509,7.837-7.837
		c0-26.321,21.414-47.735,47.735-47.735c24.82,0,45.268,19.044,47.52,43.286c-12.631,7.261-21.161,20.882-21.161,36.467
		c0,4.328,3.509,7.837,7.837,7.837c4.328,0,7.837-3.509,7.837-7.837c0-14.54,11.829-26.369,26.369-26.369
		s26.369,11.829,26.369,26.369c0,4.328,3.509,7.837,7.837,7.837s7.837-3.509,7.837-7.837
		C358.288,166.357,339.427,147.497,316.245,147.497z"/>
</g>
</svg>
